<svg xmlns="http://www.w3.org/2000/svg" xmlns:xlink="http://www.w3.org/1999/xlink" viewBox="0 0 195.65 152.23"><defs><style>.cls-1{fill:url(#linear-gradient);}.cls-2{fill:#fff;}</style><linearGradient id="linear-gradient" x1="-146.91" y1="320.01" x2="-148.89" y2="321.85" gradientTransform="matrix(88.62, 0, 0, -68.95, 13198.27, 22211.77)" gradientUnits="userSpaceOnUse"><stop offset="0" stop-color="#465daa"/><stop offset="1" stop-color="#6f80bf"/></linearGradient></defs><g id="Layer_2" data-name="Layer 2"><g id="Layer_1-2" data-name="Layer 1"><path id="Path_219" data-name="Path 219" class="cls-1" d="M166.61,22.69H97.83c-3.41-4.26-9.61-12-13.38-16.56C79.33-.1,74.82,0,74.36,0H29A29,29,0,0,0,0,29.05v94.14a29,29,0,0,0,29,29H166.61a29,29,0,0,0,29-29h0V51.73a29,29,0,0,0-29-29Z"/><path class="cls-2" d="M127.37,88.22v32.24a7.6,7.6,0,0,1-1.8,5.21,7.21,7.21,0,0,1-5.7,2.53h-44a7.31,7.31,0,0,1-6.13-3,7.66,7.66,0,0,1-1.45-4.76q0-13.91.08-27.8,0-8.85,0-17.7a2.3,2.3,0,0,1,.72-1.74Q81.32,61.12,93.52,49A2,2,0,0,1,95,48.36c8.23,0,16.46,0,24.69,0a7.23,7.23,0,0,1,6.93,4.2,7.73,7.73,0,0,1,.71,3.58V88.22ZM96.67,51.81v.83c0,5.44,0,10.88,0,16.32a7.36,7.36,0,0,1-2.89,6.17A7.51,7.51,0,0,1,89,76.65H72.56c-.77,0-.77,0-.77.74V87.83q0,16.41,0,32.81a4.63,4.63,0,0,0,.48,2,3.83,3.83,0,0,0,3.78,2h43.6a5.23,5.23,0,0,0,1.37-.14,3.82,3.82,0,0,0,2.82-4q0-32.27,0-64.53a4,4,0,0,0-4.23-4.24c-7.4.06-14.8,0-22.2,0Zm-3.55,2.81-.14,0L74.61,73.14H89.15a4.84,4.84,0,0,0,1.3-.21,3.78,3.78,0,0,0,2.67-3.87V54.62Z"/><path class="cls-2" d="M116.06,116.06h-.72c-8.18,0-16.37,0-24.55,0-.61,0-.75-.19-.72-.75a17.78,17.78,0,0,0,0-2.19c0-.55.21-.63.68-.62,4.07,0,8.15,0,12.22,0s8.26,0,12.39,0c.55,0,.74.14.71.7C116,114.13,116.06,115.05,116.06,116.06Z"/><path class="cls-2" d="M90.09,90c0-1.07,0-2.1,0-3.13,0-.11.19-.24.31-.32s.19,0,.29,0q12.24,0,24.49,0c1,0,.86-.08.86.88s0,1.68,0,2.58Z"/><path class="cls-2" d="M103.06,99.55c4.11,0,8.22,0,12.33,0,.54,0,.7.14.67.68,0,.74,0,1.49,0,2.24,0,.47-.12.64-.61.63-1.59,0-3.19,0-4.78,0H90.84c-.76,0-.76,0-.76-.76s0-1.42,0-2.13c0-.51.15-.65.65-.65,4.12,0,8.23,0,12.34,0Z"/><path class="cls-2" d="M86.63,101.37c0,.55,0,1.11,0,1.67A1.68,1.68,0,0,1,85,104.83a34.94,34.94,0,0,1-3.69,0,1.52,1.52,0,0,1-1.59-1.45,33.33,33.33,0,0,1,0-4.24,1.39,1.39,0,0,1,1.39-1.31c1.34-.06,2.69-.07,4,0a1.57,1.57,0,0,1,1.48,1.57c0,.65,0,1.3,0,2Z"/><path class="cls-2" d="M86.63,88.33c0,.5,0,1,0,1.49,0,1.2-.55,1.88-1.72,2a28.35,28.35,0,0,1-3.57,0,1.54,1.54,0,0,1-1.66-1.51,30,30,0,0,1,0-4.13,1.36,1.36,0,0,1,1.34-1.29,38.12,38.12,0,0,1,4.14,0,1.54,1.54,0,0,1,1.42,1.56c0,.63,0,1.26,0,1.9Z"/><path class="cls-2" d="M86.63,114.31c0,.57,0,1.15,0,1.73A1.68,1.68,0,0,1,85,117.81c-1.18.06-2.38.06-3.57,0a1.63,1.63,0,0,1-1.73-1.59,26,26,0,0,1,0-3.85,1.48,1.48,0,0,1,1.52-1.51,29.07,29.07,0,0,1,4,0,1.61,1.61,0,0,1,1.49,1.69c0,.58,0,1.15,0,1.73Z"/></g></g></svg>